<?xml version="1.0" encoding="utf-8"?>
<!-- Generator: Adobe Illustrator 19.2.1, SVG Export Plug-In . SVG Version: 6.00 Build 0)  -->
<svg version="1.1" id="layer" xmlns="http://www.w3.org/2000/svg" xmlns:xlink="http://www.w3.org/1999/xlink" x="0px" y="0px"
	 viewBox="0 0 652 652" style="enable-background:new 0 0 652 652;" xml:space="preserve">
<style type="text/css">
	.st0{fill-rule:evenodd;clip-rule:evenodd;fill:#0081C9;}
	.st1{fill-rule:evenodd;clip-rule:evenodd;fill:#2C2A27;}
	.st2{fill:#2C2A27;}
</style>
<g>
	<path class="st0" d="M115.8,238.7c-5.8,0-11.5,0.6-17,1.6v19.5c0,0,34.6,2.7,38.6,41l32.4-43.6C155,245.6,136.2,238.7,115.8,238.7"
		/>
	<polygon class="st0" points="174.1,272.3 174.1,294 157.1,294 	"/>
</g>
<g>
	<path class="st0" d="M187.6,276v44.9h-13.9v-16.7h-55.9c0,0,1.2-28.6-31-28.6c-14,0-26.5,9.2-26.8,18.2
		c-0.7,14.6,20,21.9,41.7,26.3c12.8,2.6,26.5,9,32.1,16.3c7.9,10.4,7.2,20.7,7.2,20.7s2.6,33.1-42.1,40v15.3
		c5.5,1.1,11.2,1.6,17,1.6c48.4,0,87.7-39.3,87.7-87.7C203.5,322.9,204.5,300.1,187.6,276"/>
	<path class="st0" d="M43.1,277.1c0,0-32.3,45.5-2.6,85.8c14.6,16.3,39.6,18.4,53.3,17.2c9.3-0.9,15.4-3.9,18.9-7
		c6.8-5.9,13.7-17.5-4.2-28.2C88,333,52.9,337.2,41.7,312.7C41.7,312.7,33.8,299.3,43.1,277.1"/>
</g>
<g>
	<path class="st1" d="M225.6,414.2V379h8c3.1,0,5.4,0.1,6.9,0.4c1.5,0.3,2.8,0.7,3.9,1.3c1.4,0.8,2.4,1.9,3.2,3.3
		c0.7,1.4,1.1,2.9,1.1,4.6c0,3.4-1.2,5.8-3.5,7.4c-2.3,1.6-6,2.3-11,2.3h-4.6v15.8H225.6z M229.6,395.6L229.6,395.6h2.7
		c4.8,0,8-0.5,9.7-1.5c1.7-1,2.5-2.7,2.5-5.2c0-1-0.2-2-0.6-2.9c-0.4-0.9-0.9-1.7-1.7-2.3c-0.8-0.7-1.8-1.2-3.2-1.5
		c-1.3-0.3-3.6-0.4-6.8-0.4h-2.7V395.6z"/>
	<path class="st1" d="M265.7,414l19.1-35.1l18.3,35.1h-4.3l-5.6-11.4h-17.8l-5.8,11.4H265.7z M276.8,400L276.8,400H292l-7.4-14.7
		L276.8,400z"/>
	<polygon class="st1" points="332.8,414.2 332.8,398 318.4,379 323.1,379 334.8,395.1 346.6,379 351.1,379 336.8,398 336.8,414.2 	
		"/>
	<polygon class="st1" points="395.5,414.2 380.2,388.4 376.9,414.2 372.8,414.2 378.7,379 395.4,407.7 412.7,379 418.3,414.2 
		414.2,414.2 411,388.4 	"/>
	<polygon class="st1" points="445.4,414.2 445.4,379 466.9,379 466.9,382 449.3,382 449.3,393 466.9,393 466.9,396 449.3,396 
		449.3,411.2 466.9,411.2 466.9,414.2 	"/>
	<polygon class="st1" points="495.5,414.1 495.5,379 526.3,406.2 526.3,379 530,379 530,414.2 499.2,386.9 499.2,414.1 	"/>
	<polygon class="st1" points="567.4,414.2 567.4,382 555.4,382 555.4,379 583.4,379 583.4,382 571.4,382 571.4,414.2 	"/>
	<path class="st1" d="M603.1,407.6l3.4-1.4c0.6,1.6,1.7,2.9,3.3,3.8c1.6,0.9,3.4,1.4,5.6,1.4c2.7,0,4.9-0.6,6.5-1.9
		c1.5-1.3,2.3-3,2.3-5.2c0-1.6-0.5-3-1.6-4c-1-1.1-3.3-2.3-6.7-3.7c-4.4-1.8-7.3-3.4-8.7-4.7c-1.5-1.4-2.2-3-2.2-4.9
		c0-2.4,1-4.3,3.1-5.8c2.1-1.5,4.8-2.2,8.1-2.2c2.2,0,4.1,0.4,5.7,1.1c1.6,0.7,2.9,1.8,3.9,3.2l-3.1,1.4c-0.6-1-1.5-1.7-2.7-2.2
		c-1.2-0.5-2.5-0.8-4.1-0.8c-2.1,0-3.8,0.5-5.1,1.5c-1.3,1-1.9,2.3-1.9,3.9c0,2.3,2.5,4.5,7.6,6.6c0.9,0.4,1.6,0.6,2.1,0.8
		c3.7,1.6,6.2,3.1,7.4,4.4c1.3,1.4,1.9,3.2,1.9,5.4c0,3-1.1,5.4-3.4,7.2c-2.3,1.8-5.4,2.6-9.3,2.6c-2.9,0-5.3-0.6-7.3-1.6
		C605.8,411.4,604.2,409.8,603.1,407.6"/>
	<path class="st1" d="M230.6,328.6c6.9,3.8,17.7,7,28.8,7c13.8,0,21.6-6,21.6-15c0-8.3-6-13.2-21.1-18.3
		c-19.8-6.5-32.4-16.2-32.4-32c0-18.1,16.3-31.7,42.3-31.7c12.9,0,22.3,2.6,28.5,5.5l-5.1,16.2c-4.4-2.1-12.7-5.2-23.9-5.2
		c-13.8,0-19.6,6.7-19.6,13.2c0,8.5,6.9,12.4,22.8,18.1c20.7,7.2,30.6,16.8,30.6,32.7c0,17.8-14.5,33.1-45.1,33.1
		c-12.7,0-25.8-3.3-32.4-7L230.6,328.6z"/>
	<path class="st1" d="M311.2,238.7h20.7v46.6h0.3c2.5-3.6,6.1-6.5,10.3-8.5c4.2-2.2,9.1-3.4,14.3-3.4c14,0,28.6,8.5,28.6,32.8v44.6
		h-20.7v-42.5c0-10.9-4.4-19.3-15.8-19.3c-8.1,0-13.8,5-16.1,10.7c-0.7,1.7-0.8,3.7-0.8,5.7v45.3h-20.7V238.7z"/>
	<path class="st1" d="M612.2,306.2v-67.5h-27.1l-49.6,69.7v13.8h55v28.4h21.6v-28.4h15.7v-16H612.2z M590.7,306.2h-0.2h-32.6
		l33.6-47.3L590.7,306.2z"/>
	<path class="st1" d="M473.5,275h-18.1v-3.9c0-9.3,3.4-17.2,13.6-17.2c3.9,0,6.6,0.6,8.9,1.4l1.3-14.7c-3.2-0.9-7.6-1.9-13.1-1.9
		c-7.2,0-15.3,2-21.4,7.3c-7.1,6.2-9.9,16-9.9,25.8v3.3h-10.4v14.3h10.4v61.3h20.7v-61.3h17.9V275z"/>
	<path class="st1" d="M482.5,289.3h11.4v35.5c0,9.9,2,16.9,6.6,21.3c3.9,3.9,10.1,6.2,17.8,6.2c6.4,0,11.9-0.9,15-2l-0.3-14.4
		c-2.4,0.6-4.4,0.8-8.1,0.8c-7.9,0-10.6-4.7-10.6-14v-33.4h17V275h-17v-19.4l-20.3,5.3V275h-11.4V289.3z"/>
	<polygon class="st1" points="394.8,275 394.8,275 415.5,275 415.5,350.6 394.8,350.6 	"/>
</g>
<g>
	<path class="st1" d="M415.6,256.9c0-5.7-4.6-10.3-10.3-10.3c-5.7,0-10.3,4.6-10.3,10.3c0,5.7,4.6,10.3,10.3,10.3
		C411,267.2,415.6,262.6,415.6,256.9"/>
	<path class="st2" d="M621.9,238.5c1,0,2,0.3,2.9,0.8c1,0.5,1.7,1.3,2.2,2.2c0.5,1,0.8,2,0.8,3c0,1-0.3,2-0.8,3
		c-0.5,1-1.3,1.7-2.2,2.2c-0.9,0.5-1.9,0.8-3,0.8c-1,0-2-0.3-3-0.8c-0.9-0.5-1.7-1.3-2.2-2.2c-0.5-1-0.8-1.9-0.8-3c0-1,0.3-2,0.8-3
		c0.5-1,1.3-1.7,2.2-2.2C619.9,238.8,620.9,238.5,621.9,238.5 M621.9,239.5c-0.8,0-1.7,0.2-2.4,0.6c-0.8,0.4-1.4,1-1.9,1.8
		c-0.5,0.8-0.7,1.6-0.7,2.5c0,0.9,0.2,1.7,0.7,2.5c0.4,0.8,1.1,1.4,1.8,1.8c0.8,0.4,1.6,0.7,2.5,0.7c0.9,0,1.7-0.2,2.5-0.7
		c0.8-0.4,1.4-1.1,1.8-1.8c0.4-0.8,0.7-1.6,0.7-2.5c0-0.9-0.2-1.7-0.7-2.5s-1.1-1.4-1.9-1.8C623.5,239.7,622.7,239.5,621.9,239.5
		 M619.2,247.8v-6.4h2.2c0.8,0,1.3,0.1,1.6,0.2c0.3,0.1,0.6,0.3,0.8,0.6c0.2,0.3,0.3,0.6,0.3,0.9c0,0.5-0.2,0.9-0.5,1.2
		c-0.3,0.4-0.8,0.5-1.3,0.6c0.2,0.1,0.4,0.2,0.5,0.3c0.3,0.3,0.6,0.7,1,1.3l0.8,1.3h-1.3l-0.6-1c-0.4-0.8-0.8-1.3-1.1-1.5
		c-0.2-0.2-0.5-0.2-0.8-0.2h-0.6v2.7H619.2z M620.3,244.2h1.3c0.6,0,1-0.1,1.2-0.3c0.2-0.2,0.3-0.4,0.3-0.7c0-0.2-0.1-0.4-0.2-0.5
		c-0.1-0.2-0.3-0.3-0.4-0.3c-0.2-0.1-0.5-0.1-1-0.1h-1.2V244.2z"/>
</g>
</svg>
